# xmcd CD database file
#
# Track frame offsets:
#	150
#	21945
#	49880
#	81055
#	101167
#	125760
#	154762
#	173722
#	184020
#	210627
#	237347
#
# Disc length: 3440 seconds
#
# Revision: 0
# Processed by: cddbd v1.4PL0 Copyright (c) Steve Scherf et al.
# Submitted via: CDex 1.50Beta7
#
DISCID=920d6e0b
DTITLE=Kaori Kuno - Breath
DYEAR=1989
DGENRE=Jazz
TTITLE0=Rifujinn na Koi
TTITLE1=Yu-gure no Location
TTITLE2=Yume ni Akogarete
TTITLE3=THANK YOU FOR YOU
TTITLE4=Himitsu no Shiro
TTITLE5=Sandome no Natsu Madika
TTITLE6=Ame ni Kieta Liousine
TTITLE7=Tsuredure - sketch No.1 -
TTITLE8=Tabidatsu Watashi no Tame ni
TTITLE9=Glass-dama no Mahou
TTITLE10=Isayoi - ISAYOI -
EXTD=YEAR: 1989
EXTT0=
EXTT1=
EXTT2=
EXTT3=
EXTT4=
EXTT5=
EXTT6=
EXTT7=
EXTT8=
EXTT9=
EXTT10=
PLAYORDER=
